<svg width="14" height="14" viewBox="0 0 14 14" fill="none" xmlns="http://www.w3.org/2000/svg">
        <path
            d="M6.99992 0.333496C3.32659 0.333496 0.333252 3.32683 0.333252 7.00016C0.333252 10.6735 3.32659 13.6668 6.99992 13.6668C10.6733 13.6668 13.6666 10.6735 13.6666 7.00016C13.6666 3.32683 10.6733 0.333496 6.99992 0.333496ZM10.1866 5.46683L6.40659 9.24683C6.31325 9.34016 6.18659 9.3935 6.05325 9.3935C5.91992 9.3935 5.79325 9.34016 5.69992 9.24683L3.81325 7.36016C3.61992 7.16683 3.61992 6.84683 3.81325 6.6535C4.00659 6.46016 4.32659 6.46016 4.51992 6.6535L6.05325 8.18683L9.47992 4.76016C9.67325 4.56683 9.99325 4.56683 10.1866 4.76016C10.3799 4.9535 10.3799 5.26683 10.1866 5.46683Z"
            fill="#2471EB"
        />
    </svg>
